<?xml version="1.0" encoding="utf-8"?>
<!-- Generator: Adobe Illustrator 17.0.0, SVG Export Plug-In . SVG Version: 6.00 Build 0)  -->
<!DOCTYPE svg PUBLIC "-//W3C//DTD SVG 1.1//EN" "http://www.w3.org/Graphics/SVG/1.1/DTD/svg11.dtd">
<svg version="1.1" id="Capa_1" xmlns="http://www.w3.org/2000/svg" xmlns:xlink="http://www.w3.org/1999/xlink" x="0px" y="0px"
	 width="110px" height="21.64px" viewBox="0 0 110 21.64" enable-background="new 0 0 110 21.64" xml:space="preserve">
<g>
	<path d="M-0.097,21.346V-0.019h8.554c2.358,0,4.129,0.513,5.315,1.539s1.779,2.339,1.779,3.938c0,1.259-0.365,2.276-1.096,3.051
		c-0.73,0.776-1.652,1.288-2.764,1.539v0.208c0.813,0.035,1.577,0.265,2.29,0.689c0.713,0.424,1.292,1.015,1.737,1.774
		c0.445,0.758,0.668,1.666,0.668,2.723c0,1.134-0.28,2.145-0.84,3.036c-0.56,0.89-1.386,1.591-2.478,2.102
		c-1.092,0.511-2.438,0.767-4.037,0.767H-0.097z M4.42,8.921h3.349c0.925,0,1.693-0.242,2.305-0.725
		c0.612-0.483,0.918-1.146,0.918-1.987c0-0.772-0.273-1.395-0.819-1.868c-0.546-0.473-1.32-0.709-2.321-0.709H4.42V8.921z
		 M4.42,17.653h3.682c1.266,0,2.186-0.243,2.759-0.73c0.574-0.487,0.861-1.13,0.861-1.93c0-0.883-0.315-1.606-0.944-2.17
		c-0.63-0.563-1.487-0.845-2.572-0.845H4.42V17.653z"/>
	<path d="M19.317,21.346V-0.019h8.554c2.358,0,4.129,0.513,5.315,1.539s1.779,2.339,1.779,3.938c0,1.259-0.365,2.276-1.096,3.051
		c-0.73,0.776-1.652,1.288-2.764,1.539v0.208c0.813,0.035,1.577,0.265,2.29,0.689c0.713,0.424,1.292,1.015,1.737,1.774
		c0.445,0.758,0.668,1.666,0.668,2.723c0,1.134-0.28,2.145-0.84,3.036c-0.56,0.89-1.386,1.591-2.478,2.102
		c-1.092,0.511-2.438,0.767-4.037,0.767H19.317z M23.834,8.921h3.349c0.925,0,1.693-0.242,2.305-0.725
		c0.612-0.483,0.918-1.146,0.918-1.987c0-0.772-0.273-1.395-0.819-1.868c-0.546-0.473-1.32-0.709-2.321-0.709h-3.432V8.921z
		 M23.834,17.653h3.682c1.266,0,2.186-0.243,2.759-0.73c0.574-0.487,0.861-1.13,0.861-1.93c0-0.883-0.315-1.606-0.944-2.17
		c-0.63-0.563-1.487-0.845-2.572-0.845h-3.786V17.653z"/>
	<path d="M36.315,21.346l0.059-0.294h0.382c0.665,0,1.263-0.122,1.792-0.367c0.529-0.245,0.891-0.827,1.087-1.748l3.437-16.274
		c0.039-0.137,0.068-0.279,0.088-0.426c0.02-0.147,0.029-0.279,0.029-0.397c0-0.529-0.22-0.856-0.661-0.984
		c-0.441-0.127-0.925-0.191-1.454-0.191h-0.382l0.059-0.294h8.225c2.644,0,4.695,0.681,6.154,2.042
		c1.459,1.362,2.188,3.345,2.188,5.949c0,1.391-0.161,2.732-0.484,4.025c-0.323,1.292-0.808,2.482-1.454,3.569
		c-0.647,1.087-1.444,2.032-2.394,2.835c-0.95,0.803-2.042,1.43-3.275,1.88c-1.234,0.451-2.614,0.676-4.142,0.676H36.315z
		 M44.658,21.022c1.175,0,2.257-0.205,3.246-0.617s1.866-0.999,2.629-1.762c0.764-0.764,1.415-1.679,1.954-2.747
		c0.539-1.067,0.945-2.262,1.219-3.583c0.274-1.322,0.411-2.747,0.411-4.275c0-1.704-0.201-3.099-0.602-4.186
		c-0.402-1.087-0.999-1.89-1.792-2.409c-0.793-0.519-1.778-0.779-2.952-0.779H46.45l-4.348,20.358H44.658z"/>
	<path d="M57.554,21.346l0.029-0.294h0.382c0.665,0,1.263-0.122,1.792-0.367c0.529-0.245,0.891-0.827,1.087-1.748l3.467-16.274
		c0.039-0.117,0.068-0.265,0.088-0.441c0.02-0.176,0.029-0.303,0.029-0.382c0-0.509-0.196-0.832-0.587-0.969
		c-0.392-0.136-0.901-0.205-1.528-0.205h-0.382l0.059-0.294h8.549L70.48,0.665h-0.382c-0.666,0-1.259,0.123-1.777,0.367
		c-0.519,0.245-0.877,0.828-1.072,1.748l-3.467,16.275c-0.02,0.117-0.044,0.26-0.073,0.426c-0.029,0.167-0.044,0.299-0.044,0.397
		c0,0.49,0.201,0.808,0.602,0.955c0.401,0.147,0.905,0.22,1.513,0.22h0.382l-0.059,0.294H57.554z"/>
	<path d="M75.092,21.64c-1.43,0-2.629-0.191-3.599-0.573c-0.969-0.382-1.699-0.896-2.188-1.542c-0.49-0.646-0.735-1.341-0.735-2.086
		c0-0.744,0.235-1.302,0.705-1.674c0.47-0.372,0.989-0.558,1.557-0.558c0,1.097,0.132,2.115,0.397,3.055
		c0.264,0.94,0.709,1.689,1.336,2.247c0.627,0.558,1.469,0.837,2.526,0.837s1.934-0.201,2.629-0.602
		c0.695-0.401,1.209-0.969,1.542-1.704c0.333-0.735,0.499-1.611,0.499-2.63c0-0.587-0.088-1.116-0.264-1.586
		c-0.177-0.47-0.529-0.945-1.058-1.424c-0.529-0.48-1.322-1.014-2.379-1.601c-0.823-0.47-1.547-0.984-2.174-1.542
		c-0.627-0.558-1.116-1.205-1.469-1.939c-0.353-0.735-0.529-1.591-0.529-2.57c0-0.803,0.161-1.552,0.485-2.247
		c0.323-0.695,0.793-1.297,1.41-1.807c0.617-0.509,1.366-0.905,2.248-1.19c0.881-0.284,1.88-0.426,2.997-0.426
		c1.135,0,2.119,0.132,2.952,0.397c0.833,0.264,1.479,0.636,1.939,1.116c0.46,0.48,0.69,1.033,0.69,1.66
		c0,0.608-0.181,1.097-0.543,1.469c-0.362,0.372-0.945,0.558-1.748,0.558c0-0.529-0.025-1.077-0.073-1.645
		c-0.049-0.568-0.172-1.102-0.367-1.601c-0.196-0.499-0.519-0.901-0.969-1.205c-0.451-0.303-1.077-0.455-1.88-0.455
		c-0.784,0-1.494,0.177-2.13,0.529c-0.636,0.352-1.146,0.886-1.527,1.601c-0.382,0.715-0.573,1.63-0.573,2.747
		c0,0.725,0.133,1.332,0.397,1.821c0.265,0.49,0.671,0.94,1.219,1.352c0.548,0.411,1.223,0.852,2.027,1.322
		c0.979,0.568,1.792,1.141,2.438,1.718s1.126,1.195,1.44,1.85c0.313,0.656,0.47,1.376,0.47,2.16c0,0.979-0.176,1.85-0.529,2.614
		c-0.353,0.764-0.862,1.41-1.528,1.938c-0.666,0.529-1.474,0.931-2.424,1.205C77.359,21.502,76.286,21.64,75.092,21.64z"/>
	<path d="M94.245,21.64c-1.704,0-3.158-0.309-4.362-0.925c-1.205-0.617-2.13-1.513-2.776-2.688c-0.646-1.175-0.969-2.595-0.969-4.26
		c0-1.39,0.186-2.756,0.559-4.098c0.372-1.341,0.905-2.59,1.601-3.745c0.695-1.155,1.537-2.169,2.526-3.041
		c0.989-0.871,2.105-1.557,3.349-2.056c1.243-0.499,2.6-0.749,4.069-0.749c1.743,0,3.085,0.299,4.025,0.896
		c0.94,0.597,1.41,1.386,1.41,2.365c0,0.705-0.249,1.263-0.749,1.674c-0.499,0.411-1.151,0.617-1.954,0.617
		c0-0.529-0.005-1.097-0.015-1.704c-0.01-0.607-0.098-1.179-0.264-1.718c-0.167-0.539-0.451-0.979-0.852-1.322
		c-0.402-0.342-0.984-0.514-1.748-0.514c-1.078,0-2.071,0.284-2.982,0.852c-0.911,0.568-1.724,1.332-2.438,2.292
		c-0.715,0.96-1.317,2.042-1.806,3.246c-0.49,1.204-0.867,2.453-1.131,3.745c-0.264,1.293-0.396,2.537-0.396,3.731
		c0,1.509,0.195,2.791,0.587,3.849c0.391,1.058,0.974,1.865,1.748,2.423c0.773,0.558,1.738,0.837,2.894,0.837
		c0.979,0,1.797-0.176,2.453-0.529c0.656-0.353,1.205-0.852,1.645-1.498c0.441-0.646,0.817-1.4,1.131-2.262
		c0.176,0.078,0.318,0.205,0.426,0.382c0.107,0.177,0.161,0.372,0.161,0.588c0,0.509-0.211,1.048-0.631,1.616
		c-0.422,0.568-1.082,1.043-1.983,1.424C96.869,21.448,95.694,21.64,94.245,21.64z"/>
	<path d="M107.399,21.617c-0.689,0-1.28-0.244-1.774-0.73c-0.494-0.487-0.737-1.078-0.73-1.774c-0.007-0.681,0.236-1.266,0.73-1.753
		c0.494-0.487,1.085-0.73,1.774-0.73c0.668,0,1.25,0.244,1.747,0.73c0.497,0.487,0.749,1.071,0.756,1.753
		c-0.007,0.696-0.259,1.287-0.756,1.774C108.65,21.374,108.067,21.617,107.399,21.617z"/>
</g>
</svg>
