<?xml version="1.0" encoding="utf-8"?>
<!-- Generator: Adobe Illustrator 17.0.0, SVG Export Plug-In . SVG Version: 6.00 Build 0)  -->
<!DOCTYPE svg PUBLIC "-//W3C//DTD SVG 1.1//EN" "http://www.w3.org/Graphics/SVG/1.1/DTD/svg11.dtd">
<svg version="1.1" id="Capa_1" xmlns="http://www.w3.org/2000/svg" xmlns:xlink="http://www.w3.org/1999/xlink" x="0px" y="0px"
	 width="200px" height="60px" viewBox="0 0 200 60" enable-background="new 0 0 200 60" xml:space="preserve">
<g>
	<path fill="#FFFFFF" d="M23.653,28.752c0.847-1.346,1.27-2.876,1.27-4.59c0-1.599-0.337-2.971-1.01-4.117
		c-0.673-1.146-1.549-2.04-2.626-2.682c-1.078-0.642-2.232-0.989-3.462-1.041v-0.316c1.682-0.378,3.076-1.154,4.18-2.327
		c1.104-1.172,1.656-2.71,1.656-4.614c0-2.419-0.897-4.404-2.69-5.955S16.5,0.784,12.935,0.784H0V33.09h13.802
		c2.419,0,4.454-0.386,6.105-1.159C21.558,31.158,22.807,30.098,23.653,28.752z M6.83,6.305h5.19c1.515,0,2.684,0.358,3.51,1.073
		c0.825,0.715,1.238,1.656,1.238,2.824c0,1.272-0.463,2.274-1.388,3.005c-0.925,0.731-2.088,1.096-3.486,1.096H6.83V6.305z
		 M16.571,26.401c-0.868,0.736-2.259,1.104-4.172,1.104H6.83v-8.581h5.726c1.64,0,2.936,0.426,3.888,1.278
		c0.952,0.852,1.428,1.946,1.428,3.281C17.872,24.693,17.438,25.665,16.571,26.401z"/>
	<rect x="29.355" y="0.784" fill="#FFFFFF" width="6.83" height="32.306"/>
	<path fill="#FFFFFF" d="M68.68,27.182c1.199-2.045,1.798-4.482,1.798-7.311v-4.07H56.96v5.142H63.9
		c-0.042,1.998-0.713,3.589-2.011,4.772c-1.299,1.183-3.084,1.775-5.356,1.775c-2.566,0-4.601-0.92-6.105-2.76
		s-2.256-4.449-2.256-7.824c0-3.365,0.765-5.96,2.295-7.784s3.531-2.737,6.002-2.737c1.756,0,3.215,0.428,4.377,1.285
		c1.162,0.857,1.959,2.043,2.39,3.557h6.941c-0.295-2.135-1.073-4.02-2.335-5.655c-1.262-1.635-2.882-2.915-4.858-3.841
		C61.008,0.805,58.8,0.342,56.36,0.342c-2.839,0-5.4,0.657-7.682,1.972c-2.282,1.315-4.091,3.213-5.426,5.695
		c-1.335,2.482-2.003,5.469-2.003,8.96c0,3.407,0.639,6.349,1.916,8.825c1.278,2.477,3.063,4.385,5.356,5.726
		c2.293,1.341,4.953,2.011,7.982,2.011c2.723,0,5.135-0.547,7.232-1.64C65.833,30.797,67.481,29.228,68.68,27.182z"/>
	<path fill="#FFFFFF" d="M95.512,31.93c1.651-0.773,2.9-1.832,3.746-3.179c0.847-1.346,1.27-2.876,1.27-4.59
		c0-1.599-0.337-2.971-1.01-4.117c-0.673-1.146-1.549-2.04-2.626-2.682c-1.078-0.642-2.232-0.989-3.462-1.041v-0.316
		c1.682-0.378,3.076-1.154,4.18-2.327c1.104-1.172,1.656-2.71,1.656-4.614c0-2.419-0.896-4.404-2.69-5.955s-4.472-2.327-8.037-2.327
		H75.605V33.09h13.802C91.826,33.09,93.861,32.703,95.512,31.93z M82.435,6.305h5.19c1.515,0,2.684,0.358,3.51,1.073
		c0.825,0.715,1.238,1.656,1.238,2.824c0,1.272-0.463,2.274-1.388,3.005c-0.925,0.731-2.088,1.096-3.486,1.096h-5.063V6.305z
		 M82.435,27.506v-8.581h5.726c1.64,0,2.936,0.426,3.888,1.278c0.952,0.852,1.428,1.946,1.428,3.281c0,1.21-0.434,2.182-1.301,2.918
		c-0.868,0.736-2.259,1.104-4.172,1.104H82.435z"/>
	<path fill="#FFFFFF" d="M112.926,25.723h11.657l2.398,7.367h7.319L123.164,0.784h-8.802L103.21,33.09h7.319L112.926,25.723z
		 M118.637,8.167h0.252l3.975,12.225h-8.203L118.637,8.167z"/>
	<polygon fill="#FFFFFF" points="145.011,12.757 145.248,12.757 159.302,33.09 165.202,33.09 165.202,0.784 158.403,0.784 
		158.403,21.101 158.119,21.101 144.175,0.784 138.181,0.784 138.181,33.09 145.011,33.09 	"/>
	<path fill="#FFFFFF" d="M177.537,31.52c2.293,1.341,4.953,2.011,7.982,2.011c2.723,0,5.134-0.547,7.232-1.64
		c2.098-1.094,3.747-2.663,4.945-4.709c1.199-2.045,1.798-4.482,1.798-7.311v-4.07h-13.519v5.142h6.941
		c-0.042,1.998-0.712,3.589-2.011,4.772c-1.299,1.183-3.084,1.775-5.356,1.775c-2.566,0-4.601-0.92-6.105-2.76
		c-1.504-1.84-2.256-4.449-2.256-7.824c0-3.365,0.765-5.96,2.295-7.784c1.53-1.824,3.531-2.737,6.002-2.737
		c1.756,0,3.215,0.428,4.378,1.285c1.162,0.857,1.958,2.043,2.389,3.557h6.941c-0.294-2.135-1.073-4.02-2.335-5.655
		c-1.262-1.635-2.881-2.915-4.858-3.841s-4.185-1.388-6.625-1.388c-2.839,0-5.4,0.657-7.682,1.972
		c-2.282,1.315-4.091,3.213-5.426,5.695c-1.335,2.482-2.003,5.469-2.003,8.96c0,3.407,0.639,6.349,1.916,8.825
		C173.46,28.271,175.245,30.179,177.537,31.52z"/>
	<path fill="#FFFFFF" d="M11.966,39.53H4.192l-0.056,0.278h0.361c0.5,0,0.958,0.06,1.374,0.18c0.416,0.121,0.625,0.43,0.625,0.93
		c0,0.111-0.009,0.236-0.028,0.375c-0.018,0.139-0.046,0.273-0.083,0.402l-3.248,15.38c-0.185,0.87-0.527,1.421-1.027,1.652
		c-0.5,0.232-1.065,0.347-1.694,0.347H0.055L0,59.352h8.745c1.443,0,2.748-0.213,3.915-0.638c1.166-0.426,2.198-1.018,3.095-1.777
		c0.898-0.758,1.652-1.652,2.263-2.679c0.611-1.027,1.069-2.152,1.374-3.373c0.305-1.221,0.458-2.489,0.458-3.804
		c0-2.461-0.69-4.335-2.068-5.622C16.403,40.173,14.464,39.53,11.966,39.53z M16.435,50.815c-0.259,1.249-0.643,2.379-1.152,3.387
		c-0.509,1.009-1.124,1.874-1.846,2.596c-0.722,0.722-1.55,1.277-2.485,1.666c-0.935,0.389-1.957,0.583-3.068,0.583H5.469
		l4.109-19.239h2.193c1.111,0,2.041,0.245,2.79,0.736c0.75,0.491,1.314,1.249,1.694,2.277c0.379,1.027,0.569,2.346,0.569,3.956
		C16.824,48.219,16.694,49.566,16.435,50.815z"/>
	<path fill="#FFFFFF" d="M32.288,39.807l0.055-0.278h-8.079l-0.056,0.278h0.361c0.592,0,1.073,0.065,1.444,0.194
		c0.37,0.13,0.555,0.435,0.555,0.916c0,0.074-0.009,0.194-0.028,0.361s-0.046,0.305-0.083,0.416l-3.276,15.38
		c-0.185,0.87-0.527,1.421-1.027,1.652c-0.5,0.232-1.065,0.347-1.694,0.347H20.1l-0.028,0.278h8.079l0.055-0.278h-0.361
		c-0.574,0-1.051-0.069-1.43-0.208c-0.38-0.139-0.569-0.44-0.569-0.902c0-0.093,0.014-0.217,0.042-0.375
		c0.028-0.157,0.051-0.291,0.069-0.402l3.276-15.381c0.185-0.87,0.523-1.42,1.013-1.652c0.49-0.231,1.05-0.347,1.679-0.347H32.288z"
		/>
	<path fill="#FFFFFF" d="M43.157,39.627c-0.787-0.25-1.717-0.375-2.79-0.375c-1.055,0-1.999,0.134-2.832,0.402
		c-0.833,0.269-1.541,0.643-2.124,1.125c-0.583,0.482-1.027,1.05-1.333,1.707c-0.305,0.657-0.458,1.365-0.458,2.124
		c0,0.926,0.167,1.735,0.5,2.429c0.333,0.694,0.796,1.305,1.388,1.832c0.592,0.527,1.277,1.013,2.055,1.458
		c0.999,0.555,1.749,1.06,2.248,1.513c0.5,0.454,0.833,0.902,1,1.346c0.167,0.444,0.25,0.944,0.25,1.499
		c0,0.962-0.157,1.79-0.472,2.485c-0.315,0.694-0.801,1.231-1.458,1.61c-0.657,0.38-1.485,0.569-2.485,0.569
		c-1,0-1.796-0.264-2.388-0.791c-0.592-0.527-1.013-1.235-1.263-2.124c-0.25-0.889-0.375-1.85-0.375-2.887
		c-0.537,0-1.027,0.176-1.471,0.527c-0.444,0.352-0.666,0.879-0.666,1.583c0,0.703,0.231,1.36,0.694,1.971
		c0.462,0.611,1.152,1.097,2.068,1.458c0.916,0.361,2.05,0.542,3.401,0.542c1.129,0,2.142-0.13,3.04-0.389
		c0.898-0.259,1.661-0.639,2.29-1.138c0.629-0.5,1.111-1.111,1.443-1.832c0.333-0.722,0.5-1.545,0.5-2.471
		c0-0.74-0.149-1.42-0.444-2.041c-0.296-0.62-0.75-1.203-1.36-1.749c-0.611-0.546-1.379-1.087-2.305-1.624
		c-0.759-0.444-1.398-0.861-1.916-1.249c-0.518-0.389-0.902-0.814-1.152-1.277c-0.25-0.462-0.375-1.036-0.375-1.721
		c0-1.055,0.18-1.92,0.542-2.596c0.361-0.676,0.842-1.18,1.443-1.513c0.602-0.333,1.272-0.5,2.013-0.5
		c0.759,0,1.351,0.144,1.777,0.43c0.425,0.287,0.731,0.666,0.916,1.138c0.185,0.472,0.301,0.976,0.347,1.513
		c0.046,0.537,0.069,1.055,0.069,1.554c0.759,0,1.309-0.176,1.652-0.527c0.342-0.351,0.513-0.814,0.513-1.388
		c0-0.592-0.218-1.115-0.652-1.569C44.554,40.228,43.943,39.877,43.157,39.627z"/>
	<path fill="#FFFFFF" d="M62.326,40.099c-0.889-0.564-2.156-0.847-3.804-0.847c-1.388,0-2.67,0.236-3.845,0.708
		c-1.176,0.472-2.231,1.12-3.165,1.943c-0.935,0.824-1.731,1.782-2.387,2.874c-0.657,1.092-1.162,2.272-1.513,3.54
		c-0.352,1.268-0.527,2.559-0.527,3.873c0,1.573,0.305,2.915,0.916,4.026c0.611,1.111,1.485,1.957,2.624,2.54
		c1.138,0.583,2.512,0.874,4.123,0.874c1.369,0,2.48-0.18,3.332-0.542c0.851-0.361,1.476-0.809,1.874-1.346
		c0.398-0.537,0.597-1.045,0.597-1.527c0-0.204-0.051-0.389-0.153-0.555c-0.102-0.167-0.236-0.287-0.402-0.361
		c-0.296,0.815-0.652,1.527-1.069,2.138c-0.416,0.611-0.935,1.083-1.555,1.416c-0.62,0.333-1.393,0.5-2.318,0.5
		c-1.092,0-2.003-0.264-2.734-0.791c-0.732-0.527-1.282-1.291-1.652-2.29c-0.371-1-0.555-2.211-0.555-3.637
		c0-1.129,0.125-2.304,0.375-3.526s0.606-2.401,1.069-3.54c0.462-1.138,1.031-2.161,1.707-3.068
		c0.675-0.907,1.443-1.628,2.304-2.165c0.861-0.536,1.8-0.805,2.818-0.805c0.722,0,1.272,0.162,1.652,0.486
		c0.379,0.324,0.648,0.74,0.805,1.249c0.157,0.509,0.24,1.05,0.25,1.624s0.014,1.111,0.014,1.61c0.759,0,1.374-0.194,1.846-0.583
		c0.472-0.389,0.708-0.916,0.708-1.582C63.659,41.408,63.215,40.664,62.326,40.099z"/>
	<path fill="#FFFFFF" d="M79.4,40.029c-1.092-0.536-2.276-0.805-3.553-0.805c-1.462,0-2.786,0.269-3.97,0.805
		c-1.185,0.537-2.221,1.254-3.109,2.152c-0.889,0.898-1.634,1.902-2.235,3.012c-0.602,1.111-1.05,2.249-1.346,3.415
		c-0.296,1.166-0.444,2.286-0.444,3.359c0,1.666,0.319,3.073,0.958,4.22c0.639,1.148,1.509,2.013,2.61,2.596
		c1.101,0.583,2.336,0.874,3.706,0.874c1.24,0,2.374-0.194,3.401-0.583c1.027-0.389,1.948-0.92,2.763-1.596
		c0.814-0.675,1.527-1.444,2.138-2.304c0.611-0.861,1.115-1.772,1.513-2.735c0.398-0.962,0.698-1.92,0.902-2.874
		c0.204-0.953,0.305-1.855,0.305-2.707c0-1.777-0.333-3.225-1-4.345C81.371,41.395,80.492,40.566,79.4,40.029z M79.692,49.385
		c-0.194,1.185-0.496,2.365-0.902,3.54c-0.407,1.176-0.921,2.249-1.541,3.221c-0.62,0.972-1.351,1.754-2.193,2.346
		c-0.842,0.592-1.8,0.889-2.874,0.889c-0.814,0-1.559-0.19-2.235-0.569c-0.676-0.379-1.208-1.05-1.596-2.013
		c-0.389-0.962-0.583-2.313-0.583-4.053c0-0.981,0.102-2.064,0.305-3.248c0.204-1.184,0.509-2.364,0.916-3.54
		c0.407-1.175,0.921-2.249,1.541-3.221c0.62-0.972,1.356-1.753,2.207-2.346c0.851-0.592,1.814-0.889,2.887-0.889
		c0.851,0,1.601,0.194,2.249,0.583c0.648,0.389,1.161,1.06,1.541,2.013c0.379,0.953,0.569,2.29,0.569,4.011
		C79.983,47.109,79.886,48.201,79.692,49.385z"/>
	<path fill="#FFFFFF" d="M103.22,50.468l0.056-0.278h-7.385l-0.056,0.278h0.25c0.537,0,1.004,0.065,1.402,0.194
		c0.398,0.129,0.597,0.435,0.597,0.916c0,0.074-0.009,0.194-0.028,0.361c-0.018,0.167-0.046,0.305-0.083,0.416l-1.388,6.608
		c-0.407,0.111-0.907,0.204-1.499,0.278c-0.593,0.074-1.194,0.111-1.805,0.111c-1.314,0-2.328-0.282-3.04-0.847
		c-0.713-0.565-1.203-1.356-1.471-2.374c-0.269-1.018-0.403-2.184-0.403-3.498c0-1.147,0.097-2.267,0.291-3.359
		c0.194-1.092,0.476-2.128,0.847-3.11c0.37-0.981,0.814-1.874,1.332-2.679c0.518-0.805,1.097-1.503,1.735-2.096
		c0.639-0.592,1.328-1.05,2.068-1.374c0.74-0.324,1.517-0.486,2.332-0.486c1.036,0,1.805,0.213,2.304,0.638
		c0.5,0.426,0.823,1.004,0.972,1.735c0.148,0.731,0.222,1.578,0.222,2.54c0.5,0,0.948-0.083,1.347-0.25
		c0.398-0.167,0.717-0.412,0.958-0.736c0.24-0.324,0.361-0.726,0.361-1.208c0-0.407-0.121-0.791-0.361-1.152
		c-0.241-0.361-0.602-0.68-1.083-0.958c-0.482-0.278-1.092-0.495-1.832-0.652c-0.74-0.157-1.601-0.236-2.582-0.236
		c-1.425,0-2.748,0.218-3.97,0.652c-1.221,0.435-2.323,1.046-3.304,1.832c-0.981,0.787-1.818,1.721-2.512,2.804
		s-1.227,2.272-1.596,3.568c-0.371,1.296-0.555,2.656-0.555,4.081c0,2.295,0.662,4.109,1.985,5.441
		c1.323,1.333,3.29,1.999,5.9,1.999c1.203,0,2.295-0.107,3.276-0.319c0.981-0.213,1.98-0.532,2.999-0.958l1.249-5.885
		c0.129-0.592,0.314-1.027,0.555-1.305c0.24-0.278,0.518-0.462,0.833-0.555c0.314-0.093,0.638-0.139,0.972-0.139H103.22z"/>
	<path fill="#FFFFFF" d="M118.753,58.727c-0.25-0.231-0.467-0.578-0.652-1.041c-0.185-0.462-0.389-1.027-0.611-1.694l-1.943-6.191
		c0.573-0.167,1.166-0.379,1.777-0.639c0.611-0.259,1.175-0.601,1.694-1.027c0.518-0.425,0.939-0.953,1.263-1.583
		c0.324-0.629,0.486-1.397,0.486-2.304c0-1.592-0.523-2.776-1.569-3.554c-1.046-0.777-2.642-1.166-4.789-1.166h-7.274l-0.056,0.278
		h0.361c0.592,0,1.073,0.065,1.444,0.194c0.37,0.13,0.555,0.435,0.555,0.916c0,0.074-0.014,0.194-0.042,0.361
		c-0.028,0.167-0.051,0.305-0.069,0.416l-3.304,15.519c-0.111,0.555-0.301,0.963-0.569,1.222c-0.269,0.259-0.579,0.43-0.93,0.513
		c-0.352,0.084-0.731,0.125-1.138,0.125h-0.361l-0.055,0.278h8.606l0.055-0.278h-0.916c-0.574,0-1.051-0.069-1.43-0.208
		c-0.38-0.139-0.569-0.44-0.569-0.902c0-0.093,0.014-0.217,0.042-0.375c0.028-0.157,0.051-0.291,0.069-0.402l1.527-7.079h2.499
		l1.61,5.996c0.24,0.87,0.545,1.541,0.916,2.013c0.37,0.472,0.884,0.796,1.541,0.972c0.656,0.176,1.531,0.264,2.623,0.264h0.361
		l0.055-0.278h-0.222C119.331,59.075,119.003,58.959,118.753,58.727z M115.338,49.274c-0.787,0.37-1.717,0.555-2.79,0.555h-2.138
		l2.11-10.022h1.888c0.778,0,1.416,0.144,1.916,0.43c0.5,0.287,0.875,0.754,1.125,1.402c0.25,0.648,0.375,1.518,0.375,2.61
		c0,1.351-0.218,2.434-0.652,3.248C116.736,48.312,116.125,48.904,115.338,49.274z"/>
	<path fill="#FFFFFF" d="M138.451,58.949c-0.222-0.083-0.394-0.231-0.514-0.444c-0.121-0.213-0.208-0.514-0.264-0.902l-2.61-18.074
		h-1.777l-10.078,17.38c-0.352,0.611-0.652,1.069-0.902,1.374c-0.25,0.305-0.5,0.514-0.75,0.625c-0.25,0.111-0.56,0.167-0.93,0.167
		H120.1l-0.056,0.278h6.58l0.056-0.278h-1.916c-0.518,0-0.907-0.078-1.166-0.236c-0.26-0.157-0.389-0.412-0.389-0.763
		c0-0.204,0.042-0.43,0.125-0.68c0.084-0.25,0.217-0.542,0.403-0.875l2.526-4.359h7.999l0.58,4.553
		c0.018,0.13,0.032,0.282,0.042,0.458c0.009,0.176,0.014,0.338,0.014,0.486c0,0.444-0.176,0.791-0.527,1.041
		c-0.352,0.25-0.888,0.375-1.61,0.375h-0.639l-0.055,0.278h7.551l0.056-0.278h-0.361C138.959,59.075,138.673,59.033,138.451,58.949z
		 M126.423,51.884l3.282-5.664c0.24-0.407,0.509-0.87,0.805-1.388c0.296-0.518,0.601-1.041,0.916-1.569
		c0.314-0.527,0.602-1.022,0.861-1.485s0.462-0.842,0.611-1.138c0.037,0.389,0.087,0.94,0.153,1.652
		c0.065,0.713,0.143,1.449,0.236,2.207c0.093,0.759,0.176,1.416,0.25,1.971l0.69,5.414H126.423z"/>
	<path fill="#FFFFFF" d="M158.301,44.888c0-1.184-0.26-2.17-0.778-2.957c-0.518-0.787-1.249-1.383-2.193-1.791
		c-0.944-0.407-2.064-0.611-3.359-0.611h-7.107l-0.056,0.278h0.361c0.592,0,1.073,0.065,1.444,0.194
		c0.37,0.13,0.555,0.435,0.555,0.916c0,0.074-0.009,0.194-0.028,0.361s-0.046,0.305-0.083,0.416l-3.276,15.38
		c-0.185,0.87-0.523,1.421-1.013,1.652c-0.491,0.232-1.041,0.347-1.652,0.347h-0.361l-0.055,0.278h8.051l0.055-0.278h-0.916
		c-0.407,0-0.75-0.069-1.027-0.208c-0.278-0.139-0.416-0.44-0.416-0.902c0-0.093,0.014-0.217,0.042-0.375
		c0.028-0.157,0.051-0.291,0.069-0.402l1.194-5.553h2.054c1.425,0,2.633-0.143,3.623-0.431c0.99-0.287,1.805-0.666,2.443-1.138
		c0.638-0.472,1.133-1.004,1.485-1.596c0.351-0.592,0.597-1.198,0.736-1.818C158.232,46.031,158.301,45.443,158.301,44.888z
		 M155.039,47.22c-0.213,0.852-0.555,1.587-1.027,2.207c-0.472,0.62-1.096,1.097-1.874,1.43c-0.777,0.333-1.731,0.5-2.859,0.5
		h-1.472l2.443-11.549h1.277c1.369,0,2.35,0.371,2.943,1.111c0.592,0.74,0.889,1.907,0.889,3.498
		C155.358,45.434,155.251,46.369,155.039,47.22z"/>
	<path fill="#FFFFFF" d="M173.82,39.807h0.361c0.592,0,1.073,0.065,1.444,0.194c0.37,0.13,0.555,0.435,0.555,0.916
		c0,0.074-0.01,0.194-0.028,0.361c-0.019,0.167-0.046,0.305-0.083,0.416l-1.527,7.163h-9.023l1.499-7.052
		c0.185-0.87,0.523-1.42,1.013-1.652c0.49-0.231,1.05-0.347,1.68-0.347h0.361l0.055-0.278h-8.079l-0.056,0.278h0.361
		c0.389,0,0.736,0.028,1.041,0.083c0.305,0.056,0.542,0.162,0.708,0.319c0.167,0.158,0.25,0.394,0.25,0.708
		c0,0.074-0.009,0.194-0.028,0.361c-0.018,0.167-0.046,0.305-0.083,0.416l-3.248,15.38c-0.185,0.87-0.527,1.421-1.027,1.652
		c-0.5,0.232-1.065,0.347-1.694,0.347h-0.361l-0.055,0.278h8.079l0.083-0.278h-0.361c-0.574,0-1.051-0.069-1.43-0.208
		c-0.38-0.139-0.569-0.44-0.569-0.902c0-0.093,0.014-0.217,0.042-0.375c0.028-0.157,0.051-0.291,0.069-0.402l1.666-8.051h9.023
		l-1.638,7.94c-0.185,0.87-0.527,1.421-1.027,1.652c-0.5,0.232-1.064,0.347-1.693,0.347h-0.361l-0.055,0.278h8.079l0.056-0.278
		h-0.333c-0.389,0-0.731-0.028-1.027-0.083c-0.296-0.056-0.532-0.162-0.708-0.32c-0.176-0.157-0.264-0.393-0.264-0.708
		c0-0.093,0.014-0.217,0.042-0.375c0.028-0.157,0.051-0.291,0.069-0.402l3.248-15.381c0.185-0.87,0.523-1.42,1.013-1.652
		c0.49-0.231,1.05-0.347,1.679-0.347h0.361l0.055-0.278h-8.079L173.82,39.807z"/>
	<path fill="#FFFFFF" d="M193.976,39.53l-0.056,0.278h1.749c0.5,0,0.851,0.069,1.055,0.208c0.204,0.139,0.305,0.356,0.305,0.652
		c0,0.241-0.065,0.495-0.194,0.763c-0.13,0.268-0.352,0.615-0.666,1.041l-4.164,5.858c-0.315,0.444-0.629,0.889-0.944,1.333
		c-0.315,0.444-0.63,0.888-0.944,1.332c-0.093-0.351-0.19-0.708-0.291-1.069c-0.102-0.361-0.199-0.722-0.291-1.083
		c-0.093-0.361-0.194-0.717-0.305-1.069l-1.527-5.608c-0.056-0.222-0.107-0.425-0.153-0.611c-0.046-0.185-0.083-0.361-0.111-0.527
		c-0.028-0.167-0.042-0.324-0.042-0.472c0-0.24,0.087-0.425,0.264-0.555c0.176-0.129,0.448-0.194,0.819-0.194h1.388l0.056-0.278
		h-7.496l-0.056,0.278h0.361c0.536,0,0.907,0.111,1.111,0.333c0.203,0.222,0.389,0.602,0.555,1.138l3.026,9.939l-1.277,5.996
		c-0.185,0.833-0.523,1.351-1.013,1.555c-0.491,0.204-1.041,0.305-1.652,0.305h-0.638l-0.056,0.278h8.634l0.056-0.278h-0.639
		c-0.574,0-1.05-0.069-1.43-0.208c-0.38-0.139-0.569-0.44-0.569-0.902c0-0.093,0.014-0.217,0.042-0.375
		c0.028-0.157,0.051-0.291,0.069-0.402l1.277-5.914l6.663-9.356c0.351-0.481,0.662-0.875,0.93-1.18
		c0.268-0.305,0.532-0.537,0.791-0.694c0.259-0.157,0.527-0.236,0.805-0.236h0.528L200,39.53H193.976z"/>
</g>
</svg>
